<?xml version="1.0" encoding="utf-8" standalone="no"?>
<!DOCTYPE svg PUBLIC "-//W3C//DTD SVG 1.1//EN"
  "http://www.w3.org/Graphics/SVG/1.1/DTD/svg11.dtd">
<svg xmlns:xlink="http://www.w3.org/1999/xlink" width="1440pt" height="720pt" viewBox="0 0 1440 720" xmlns="http://www.w3.org/2000/svg" version="1.1">
 <metadata>
  <rdf:RDF xmlns:dc="http://purl.org/dc/elements/1.1/" xmlns:cc="http://creativecommons.org/ns#" xmlns:rdf="http://www.w3.org/1999/02/22-rdf-syntax-ns#">
   <cc:Work>
    <dc:type rdf:resource="http://purl.org/dc/dcmitype/StillImage"/>
    <dc:date>2022-02-07T10:42:50.091383</dc:date>
    <dc:format>image/svg+xml</dc:format>
    <dc:creator>
     <cc:Agent>
      <dc:title>Matplotlib v3.5.0, https://matplotlib.org/</dc:title>
     </cc:Agent>
    </dc:creator>
   </cc:Work>
  </rdf:RDF>
 </metadata>
 <defs>
  <style type="text/css">*{stroke-linejoin: round; stroke-linecap: butt}</style>
 </defs>
 <g id="figure_1">
  <g id="patch_1">
   <path d="M 0 720
L 1440 720
L 1440 0
L 0 0
z
" style="fill: #ffffff"/>
  </g>
  <g id="axes_1">
   <g id="patch_2">
    <path d="M 180 612
L 1296 612
L 1296 86.4
L 180 86.4
z
" style="fill: #eaeaf2"/>
   </g>
   <g id="matplotlib.axis_1">
    <g id="xtick_1">
     <g id="line2d_1">
      <path d="M 242.46366 612
L 242.46366 86.4
" clip-path="url(#pe617d539b5)" style="fill: none; stroke: #000000; stroke-opacity: 0.5; stroke-width: 0.5; stroke-linecap: round"/>
     </g>
     <g id="text_1">
      <!-- Lauraceae -->
      <g style="fill: #262626" transform="translate(221.125983 647.306757)rotate(-45)scale(0.055584 -0.055584)">
       <defs>
        <path id="DejaVuSans-4c" d="M 628 4666
L 1259 4666
L 1259 531
L 3531 531
L 3531 0
L 628 0
L 628 4666
z
" transform="scale(0.015625)"/>
        <path id="DejaVuSans-61" d="M 2194 1759
Q 1497 1759 1228 1600
Q 959 1441 959 1056
Q 959 750 1161 570
Q 1363 391 1709 391
Q 2188 391 2477 730
Q 2766 1069 2766 1631
L 2766 1759
L 2194 1759
z
M 3341 1997
L 3341 0
L 2766 0
L 2766 531
Q 2569 213 2275 61
Q 1981 -91 1556 -91
Q 1019 -91 701 211
Q 384 513 384 1019
Q 384 1609 779 1909
Q 1175 2209 1959 2209
L 2766 2209
L 2766 2266
Q 2766 2663 2505 2880
Q 2244 3097 1772 3097
Q 1472 3097 1187 3025
Q 903 2953 641 2809
L 641 3341
Q 956 3463 1253 3523
Q 1550 3584 1831 3584
Q 2591 3584 2966 3190
Q 3341 2797 3341 1997
z
" transform="scale(0.015625)"/>
        <path id="DejaVuSans-75" d="M 544 1381
L 544 3500
L 1119 3500
L 1119 1403
Q 1119 906 1312 657
Q 1506 409 1894 409
Q 2359 409 2629 706
Q 2900 1003 2900 1516
L 2900 3500
L 3475 3500
L 3475 0
L 2900 0
L 2900 538
Q 2691 219 2414 64
Q 2138 -91 1772 -91
Q 1169 -91 856 284
Q 544 659 544 1381
z
M 1991 3584
L 1991 3584
z
" transform="scale(0.015625)"/>
        <path id="DejaVuSans-72" d="M 2631 2963
Q 2534 3019 2420 3045
Q 2306 3072 2169 3072
Q 1681 3072 1420 2755
Q 1159 2438 1159 1844
L 1159 0
L 581 0
L 581 3500
L 1159 3500
L 1159 2956
Q 1341 3275 1631 3429
Q 1922 3584 2338 3584
Q 2397 3584 2469 3576
Q 2541 3569 2628 3553
L 2631 2963
z
" transform="scale(0.015625)"/>
        <path id="DejaVuSans-63" d="M 3122 3366
L 3122 2828
Q 2878 2963 2633 3030
Q 2388 3097 2138 3097
Q 1578 3097 1268 2742
Q 959 2388 959 1747
Q 959 1106 1268 751
Q 1578 397 2138 397
Q 2388 397 2633 464
Q 2878 531 3122 666
L 3122 134
Q 2881 22 2623 -34
Q 2366 -91 2075 -91
Q 1284 -91 818 406
Q 353 903 353 1747
Q 353 2603 823 3093
Q 1294 3584 2113 3584
Q 2378 3584 2631 3529
Q 2884 3475 3122 3366
z
" transform="scale(0.015625)"/>
        <path id="DejaVuSans-65" d="M 3597 1894
L 3597 1613
L 953 1613
Q 991 1019 1311 708
Q 1631 397 2203 397
Q 2534 397 2845 478
Q 3156 559 3463 722
L 3463 178
Q 3153 47 2828 -22
Q 2503 -91 2169 -91
Q 1331 -91 842 396
Q 353 884 353 1716
Q 353 2575 817 3079
Q 1281 3584 2069 3584
Q 2775 3584 3186 3129
Q 3597 2675 3597 1894
z
M 3022 2063
Q 3016 2534 2758 2815
Q 2500 3097 2075 3097
Q 1594 3097 1305 2825
Q 1016 2553 972 2059
L 3022 2063
z
" transform="scale(0.015625)"/>
       </defs>
       <use xlink:href="#DejaVuSans-4c"/>
       <use xlink:href="#DejaVuSans-61" x="55.712891"/>
       <use xlink:href="#DejaVuSans-75" x="116.992188"/>
       <use xlink:href="#DejaVuSans-72" x="180.371094"/>
       <use xlink:href="#DejaVuSans-61" x="221.484375"/>
       <use xlink:href="#DejaVuSans-63" x="282.763672"/>
       <use xlink:href="#DejaVuSans-65" x="337.744141"/>
       <use xlink:href="#DejaVuSans-61" x="399.267578"/>
       <use xlink:href="#DejaVuSans-65" x="460.546875"/>
      </g>
     </g>
    </g>
    <g id="xtick_2">
     <g id="line2d_2">
      <path d="M 268.54452 612
L 268.54452 86.4
" clip-path="url(#pe617d539b5)" style="fill: none; stroke: #000000; stroke-opacity: 0.5; stroke-width: 0.5; stroke-linecap: round"/>
     </g>
     <g id="text_2">
      <!-- Fabaceae -->
      <g style="fill: #262626" transform="translate(249.106323 645.407277)rotate(-45)scale(0.055584 -0.055584)">
       <defs>
        <path id="DejaVuSans-46" d="M 628 4666
L 3309 4666
L 3309 4134
L 1259 4134
L 1259 2759
L 3109 2759
L 3109 2228
L 1259 2228
L 1259 0
L 628 0
L 628 4666
z
" transform="scale(0.015625)"/>
        <path id="DejaVuSans-62" d="M 3116 1747
Q 3116 2381 2855 2742
Q 2594 3103 2138 3103
Q 1681 3103 1420 2742
Q 1159 2381 1159 1747
Q 1159 1113 1420 752
Q 1681 391 2138 391
Q 2594 391 2855 752
Q 3116 1113 3116 1747
z
M 1159 2969
Q 1341 3281 1617 3432
Q 1894 3584 2278 3584
Q 2916 3584 3314 3078
Q 3713 2572 3713 1747
Q 3713 922 3314 415
Q 2916 -91 2278 -91
Q 1894 -91 1617 61
Q 1341 213 1159 525
L 1159 0
L 581 0
L 581 4863
L 1159 4863
L 1159 2969
z
" transform="scale(0.015625)"/>
       </defs>
       <use xlink:href="#DejaVuSans-46"/>
       <use xlink:href="#DejaVuSans-61" x="48.394531"/>
       <use xlink:href="#DejaVuSans-62" x="109.673828"/>
       <use xlink:href="#DejaVuSans-61" x="173.150391"/>
       <use xlink:href="#DejaVuSans-63" x="234.429688"/>
       <use xlink:href="#DejaVuSans-65" x="289.410156"/>
       <use xlink:href="#DejaVuSans-61" x="350.933594"/>
       <use xlink:href="#DejaVuSans-65" x="412.212891"/>
      </g>
     </g>
    </g>
    <g id="xtick_3">
     <g id="line2d_3">
      <path d="M 320.70624 612
L 320.70624 86.4
" clip-path="url(#pe617d539b5)" style="fill: none; stroke: #000000; stroke-opacity: 0.5; stroke-width: 0.5; stroke-linecap: round"/>
     </g>
     <g id="text_3">
      <!-- Betulaceae -->
      <g style="fill: #262626" transform="translate(297.835099 648.84022)rotate(-45)scale(0.055584 -0.055584)">
       <defs>
        <path id="DejaVuSans-42" d="M 1259 2228
L 1259 519
L 2272 519
Q 2781 519 3026 730
Q 3272 941 3272 1375
Q 3272 1813 3026 2020
Q 2781 2228 2272 2228
L 1259 2228
z
M 1259 4147
L 1259 2741
L 2194 2741
Q 2656 2741 2882 2914
Q 3109 3088 3109 3444
Q 3109 3797 2882 3972
Q 2656 4147 2194 4147
L 1259 4147
z
M 628 4666
L 2241 4666
Q 2963 4666 3353 4366
Q 3744 4066 3744 3513
Q 3744 3084 3544 2831
Q 3344 2578 2956 2516
Q 3422 2416 3680 2098
Q 3938 1781 3938 1306
Q 3938 681 3513 340
Q 3088 0 2303 0
L 628 0
L 628 4666
z
" transform="scale(0.015625)"/>
        <path id="DejaVuSans-74" d="M 1172 4494
L 1172 3500
L 2356 3500
L 2356 3053
L 1172 3053
L 1172 1153
Q 1172 725 1289 603
Q 1406 481 1766 481
L 2356 481
L 2356 0
L 1766 0
Q 1100 0 847 248
Q 594 497 594 1153
L 594 3053
L 172 3053
L 172 3500
L 594 3500
L 594 4494
L 1172 4494
z
" transform="scale(0.015625)"/>
        <path id="DejaVuSans-6c" d="M 603 4863
L 1178 4863
L 1178 0
L 603 0
L 603 4863
z
" transform="scale(0.015625)"/>
       </defs>
       <use xlink:href="#DejaVuSans-42"/>
       <use xlink:href="#DejaVuSans-65" x="68.603516"/>
       <use xlink:href="#DejaVuSans-74" x="130.126953"/>
       <use xlink:href="#DejaVuSans-75" x="169.335938"/>
       <use xlink:href="#DejaVuSans-6c" x="232.714844"/>
       <use xlink:href="#DejaVuSans-61" x="260.498047"/>
       <use xlink:href="#DejaVuSans-63" x="321.777344"/>
       <use xlink:href="#DejaVuSans-65" x="376.757812"/>
       <use xlink:href="#DejaVuSans-61" x="438.28125"/>
       <use xlink:href="#DejaVuSans-65" x="499.560547"/>
      </g>
     </g>
    </g>
    <g id="xtick_4">
     <g id="line2d_4">
      <path d="M 398.94882 612
L 398.94882 86.4
" clip-path="url(#pe617d539b5)" style="fill: none; stroke: #000000; stroke-opacity: 0.5; stroke-width: 0.5; stroke-linecap: round"/>
     </g>
     <g id="text_4">
      <!-- Anacardiaceae -->
      <g style="fill: #262626" transform="translate(369.024485 655.893414)rotate(-45)scale(0.055584 -0.055584)">
       <defs>
        <path id="DejaVuSans-41" d="M 2188 4044
L 1331 1722
L 3047 1722
L 2188 4044
z
M 1831 4666
L 2547 4666
L 4325 0
L 3669 0
L 3244 1197
L 1141 1197
L 716 0
L 50 0
L 1831 4666
z
" transform="scale(0.015625)"/>
        <path id="DejaVuSans-6e" d="M 3513 2113
L 3513 0
L 2938 0
L 2938 2094
Q 2938 2591 2744 2837
Q 2550 3084 2163 3084
Q 1697 3084 1428 2787
Q 1159 2491 1159 1978
L 1159 0
L 581 0
L 581 3500
L 1159 3500
L 1159 2956
Q 1366 3272 1645 3428
Q 1925 3584 2291 3584
Q 2894 3584 3203 3211
Q 3513 2838 3513 2113
z
" transform="scale(0.015625)"/>
        <path id="DejaVuSans-64" d="M 2906 2969
L 2906 4863
L 3481 4863
L 3481 0
L 2906 0
L 2906 525
Q 2725 213 2448 61
Q 2172 -91 1784 -91
Q 1150 -91 751 415
Q 353 922 353 1747
Q 353 2572 751 3078
Q 1150 3584 1784 3584
Q 2172 3584 2448 3432
Q 2725 3281 2906 2969
z
M 947 1747
Q 947 1113 1208 752
Q 1469 391 1925 391
Q 2381 391 2643 752
Q 2906 1113 2906 1747
Q 2906 2381 2643 2742
Q 2381 3103 1925 3103
Q 1469 3103 1208 2742
Q 947 2381 947 1747
z
" transform="scale(0.015625)"/>
        <path id="DejaVuSans-69" d="M 603 3500
L 1178 3500
L 1178 0
L 603 0
L 603 3500
z
M 603 4863
L 1178 4863
L 1178 4134
L 603 4134
L 603 4863
z
" transform="scale(0.015625)"/>
       </defs>
       <use xlink:href="#DejaVuSans-41"/>
       <use xlink:href="#DejaVuSans-6e" x="68.408203"/>
       <use xlink:href="#DejaVuSans-61" x="131.787109"/>
       <use xlink:href="#DejaVuSans-63" x="193.066406"/>
       <use xlink:href="#DejaVuSans-61" x="248.046875"/>
       <use xlink:href="#DejaVuSans-72" x="309.326172"/>
       <use xlink:href="#DejaVuSans-64" x="348.689453"/>
       <use xlink:href="#DejaVuSans-69" x="412.166016"/>
       <use xlink:href="#DejaVuSans-61" x="439.949219"/>
       <use xlink:href="#DejaVuSans-63" x="501.228516"/>
       <use xlink:href="#DejaVuSans-65" x="556.208984"/>
       <use xlink:href="#DejaVuSans-61" x="617.732422"/>
       <use xlink:href="#DejaVuSans-65" x="679.011719"/>
      </g>
     </g>
    </g>
    <g id="xtick_5">
     <g id="line2d_5">
      <path d="M 425.02968 612
L 425.02968 86.4
" clip-path="url(#pe617d539b5)" style="fill: none; stroke: #000000; stroke-opacity: 0.5; stroke-width: 0.5; stroke-linecap: round"/>
     </g>
     <g id="text_5">
      <!-- Sapindaceae -->
      <g style="fill: #262626" transform="translate(398.920273 652.078487)rotate(-45)scale(0.055584 -0.055584)">
       <defs>
        <path id="DejaVuSans-53" d="M 3425 4513
L 3425 3897
Q 3066 4069 2747 4153
Q 2428 4238 2131 4238
Q 1616 4238 1336 4038
Q 1056 3838 1056 3469
Q 1056 3159 1242 3001
Q 1428 2844 1947 2747
L 2328 2669
Q 3034 2534 3370 2195
Q 3706 1856 3706 1288
Q 3706 609 3251 259
Q 2797 -91 1919 -91
Q 1588 -91 1214 -16
Q 841 59 441 206
L 441 856
Q 825 641 1194 531
Q 1563 422 1919 422
Q 2459 422 2753 634
Q 3047 847 3047 1241
Q 3047 1584 2836 1778
Q 2625 1972 2144 2069
L 1759 2144
Q 1053 2284 737 2584
Q 422 2884 422 3419
Q 422 4038 858 4394
Q 1294 4750 2059 4750
Q 2388 4750 2728 4690
Q 3069 4631 3425 4513
z
" transform="scale(0.015625)"/>
        <path id="DejaVuSans-70" d="M 1159 525
L 1159 -1331
L 581 -1331
L 581 3500
L 1159 3500
L 1159 2969
Q 1341 3281 1617 3432
Q 1894 3584 2278 3584
Q 2916 3584 3314 3078
Q 3713 2572 3713 1747
Q 3713 922 3314 415
Q 2916 -91 2278 -91
Q 1894 -91 1617 61
Q 1341 213 1159 525
z
M 3116 1747
Q 3116 2381 2855 2742
Q 2594 3103 2138 3103
Q 1681 3103 1420 2742
Q 1159 2381 1159 1747
Q 1159 1113 1420 752
Q 1681 391 2138 391
Q 2594 391 2855 752
Q 3116 1113 3116 1747
z
" transform="scale(0.015625)"/>
       </defs>
       <use xlink:href="#DejaVuSans-53"/>
       <use xlink:href="#DejaVuSans-61" x="63.476562"/>
       <use xlink:href="#DejaVuSans-70" x="124.755859"/>
       <use xlink:href="#DejaVuSans-69" x="188.232422"/>
       <use xlink:href="#DejaVuSans-6e" x="216.015625"/>
       <use xlink:href="#DejaVuSans-64" x="279.394531"/>
       <use xlink:href="#DejaVuSans-61" x="342.871094"/>
       <use xlink:href="#DejaVuSans-63" x="404.150391"/>
       <use xlink:href="#DejaVuSans-65" x="459.130859"/>
       <use xlink:href="#DejaVuSans-61" x="520.654297"/>
       <use xlink:href="#DejaVuSans-65" x="581.933594"/>
      </g>
     </g>
    </g>
    <g id="xtick_6">
     <g id="line2d_6">
      <path d="M 451.11054 612
L 451.11054 86.4
" clip-path="url(#pe617d539b5)" style="fill: none; stroke: #000000; stroke-opacity: 0.5; stroke-width: 0.5; stroke-linecap: round"/>
     </g>
     <g id="text_6">
      <!-- Malvaceae -->
      <g style="fill: #262626" transform="translate(429.260071 647.819549)rotate(-45)scale(0.055584 -0.055584)">
       <defs>
        <path id="DejaVuSans-4d" d="M 628 4666
L 1569 4666
L 2759 1491
L 3956 4666
L 4897 4666
L 4897 0
L 4281 0
L 4281 4097
L 3078 897
L 2444 897
L 1241 4097
L 1241 0
L 628 0
L 628 4666
z
" transform="scale(0.015625)"/>
        <path id="DejaVuSans-76" d="M 191 3500
L 800 3500
L 1894 563
L 2988 3500
L 3597 3500
L 2284 0
L 1503 0
L 191 3500
z
" transform="scale(0.015625)"/>
       </defs>
       <use xlink:href="#DejaVuSans-4d"/>
       <use xlink:href="#DejaVuSans-61" x="86.279297"/>
       <use xlink:href="#DejaVuSans-6c" x="147.558594"/>
       <use xlink:href="#DejaVuSans-76" x="175.341797"/>
       <use xlink:href="#DejaVuSans-61" x="234.521484"/>
       <use xlink:href="#DejaVuSans-63" x="295.800781"/>
       <use xlink:href="#DejaVuSans-65" x="350.78125"/>
       <use xlink:href="#DejaVuSans-61" x="412.304688"/>
       <use xlink:href="#DejaVuSans-65" x="473.583984"/>
      </g>
     </g>
    </g>
    <g id="xtick_7">
     <g id="line2d_7">
      <path d="M 529.35312 612
L 529.35312 86.4
" clip-path="url(#pe617d539b5)" style="fill: none; stroke: #000000; stroke-opacity: 0.5; stroke-width: 0.5; stroke-linecap: round"/>
     </g>
     <g id="text_7">
      <!-- Fagaceae -->
      <g style="fill: #262626" transform="translate(509.914923 645.407277)rotate(-45)scale(0.055584 -0.055584)">
       <defs>
        <path id="DejaVuSans-67" d="M 2906 1791
Q 2906 2416 2648 2759
Q 2391 3103 1925 3103
Q 1463 3103 1205 2759
Q 947 2416 947 1791
Q 947 1169 1205 825
Q 1463 481 1925 481
Q 2391 481 2648 825
Q 2906 1169 2906 1791
z
M 3481 434
Q 3481 -459 3084 -895
Q 2688 -1331 1869 -1331
Q 1566 -1331 1297 -1286
Q 1028 -1241 775 -1147
L 775 -588
Q 1028 -725 1275 -790
Q 1522 -856 1778 -856
Q 2344 -856 2625 -561
Q 2906 -266 2906 331
L 2906 616
Q 2728 306 2450 153
Q 2172 0 1784 0
Q 1141 0 747 490
Q 353 981 353 1791
Q 353 2603 747 3093
Q 1141 3584 1784 3584
Q 2172 3584 2450 3431
Q 2728 3278 2906 2969
L 2906 3500
L 3481 3500
L 3481 434
z
" transform="scale(0.015625)"/>
       </defs>
       <use xlink:href="#DejaVuSans-46"/>
       <use xlink:href="#DejaVuSans-61" x="48.394531"/>
       <use xlink:href="#DejaVuSans-67" x="109.673828"/>
       <use xlink:href="#DejaVuSans-61" x="173.150391"/>
       <use xlink:href="#DejaVuSans-63" x="234.429688"/>
       <use xlink:href="#DejaVuSans-65" x="289.410156"/>
       <use xlink:href="#DejaVuSans-61" x="350.933594"/>
       <use xlink:href="#DejaVuSans-65" x="412.212891"/>
      </g>
     </g>
    </g>
    <g id="xtick_8">
     <g id="line2d_8">
      <path d="M 555.43398 612
L 555.43398 86.4
" clip-path="url(#pe617d539b5)" style="fill: none; stroke: #000000; stroke-opacity: 0.5; stroke-width: 0.5; stroke-linecap: round"/>
     </g>
     <g id="text_8">
      <!-- Rosaceae -->
      <g style="fill: #262626" transform="translate(535.794965 645.608095)rotate(-45)scale(0.055584 -0.055584)">
       <defs>
        <path id="DejaVuSans-52" d="M 2841 2188
Q 3044 2119 3236 1894
Q 3428 1669 3622 1275
L 4263 0
L 3584 0
L 2988 1197
Q 2756 1666 2539 1819
Q 2322 1972 1947 1972
L 1259 1972
L 1259 0
L 628 0
L 628 4666
L 2053 4666
Q 2853 4666 3247 4331
Q 3641 3997 3641 3322
Q 3641 2881 3436 2590
Q 3231 2300 2841 2188
z
M 1259 4147
L 1259 2491
L 2053 2491
Q 2509 2491 2742 2702
Q 2975 2913 2975 3322
Q 2975 3731 2742 3939
Q 2509 4147 2053 4147
L 1259 4147
z
" transform="scale(0.015625)"/>
        <path id="DejaVuSans-6f" d="M 1959 3097
Q 1497 3097 1228 2736
Q 959 2375 959 1747
Q 959 1119 1226 758
Q 1494 397 1959 397
Q 2419 397 2687 759
Q 2956 1122 2956 1747
Q 2956 2369 2687 2733
Q 2419 3097 1959 3097
z
M 1959 3584
Q 2709 3584 3137 3096
Q 3566 2609 3566 1747
Q 3566 888 3137 398
Q 2709 -91 1959 -91
Q 1206 -91 779 398
Q 353 888 353 1747
Q 353 2609 779 3096
Q 1206 3584 1959 3584
z
" transform="scale(0.015625)"/>
        <path id="DejaVuSans-73" d="M 2834 3397
L 2834 2853
Q 2591 2978 2328 3040
Q 2066 3103 1784 3103
Q 1356 3103 1142 2972
Q 928 2841 928 2578
Q 928 2378 1081 2264
Q 1234 2150 1697 2047
L 1894 2003
Q 2506 1872 2764 1633
Q 3022 1394 3022 966
Q 3022 478 2636 193
Q 2250 -91 1575 -91
Q 1294 -91 989 -36
Q 684 19 347 128
L 347 722
Q 666 556 975 473
Q 1284 391 1588 391
Q 1994 391 2212 530
Q 2431 669 2431 922
Q 2431 1156 2273 1281
Q 2116 1406 1581 1522
L 1381 1569
Q 847 1681 609 1914
Q 372 2147 372 2553
Q 372 3047 722 3315
Q 1072 3584 1716 3584
Q 2034 3584 2315 3537
Q 2597 3491 2834 3397
z
" transform="scale(0.015625)"/>
       </defs>
       <use xlink:href="#DejaVuSans-52"/>
       <use xlink:href="#DejaVuSans-6f" x="64.982422"/>
       <use xlink:href="#DejaVuSans-73" x="126.164062"/>
       <use xlink:href="#DejaVuSans-61" x="178.263672"/>
       <use xlink:href="#DejaVuSans-63" x="239.542969"/>
       <use xlink:href="#DejaVuSans-65" x="294.523438"/>
       <use xlink:href="#DejaVuSans-61" x="356.046875"/>
       <use xlink:href="#DejaVuSans-65" x="417.326172"/>
      </g>
     </g>
    </g>
    <g id="xtick_9">
     <g id="line2d_9">
      <path d="M 607.5957 612
L 607.5957 86.4
" clip-path="url(#pe617d539b5)" style="fill: none; stroke: #000000; stroke-opacity: 0.5; stroke-width: 0.5; stroke-linecap: round"/>
     </g>
     <g id="text_9">
      <!-- Myrtaceae -->
      <g style="fill: #262626" transform="translate(586.089139 647.475641)rotate(-45)scale(0.055584 -0.055584)">
       <defs>
        <path id="DejaVuSans-79" d="M 2059 -325
Q 1816 -950 1584 -1140
Q 1353 -1331 966 -1331
L 506 -1331
L 506 -850
L 844 -850
Q 1081 -850 1212 -737
Q 1344 -625 1503 -206
L 1606 56
L 191 3500
L 800 3500
L 1894 763
L 2988 3500
L 3597 3500
L 2059 -325
z
" transform="scale(0.015625)"/>
       </defs>
       <use xlink:href="#DejaVuSans-4d"/>
       <use xlink:href="#DejaVuSans-79" x="86.279297"/>
       <use xlink:href="#DejaVuSans-72" x="145.458984"/>
       <use xlink:href="#DejaVuSans-74" x="186.572266"/>
       <use xlink:href="#DejaVuSans-61" x="225.78125"/>
       <use xlink:href="#DejaVuSans-63" x="287.060547"/>
       <use xlink:href="#DejaVuSans-65" x="342.041016"/>
       <use xlink:href="#DejaVuSans-61" x="403.564453"/>
       <use xlink:href="#DejaVuSans-65" x="464.84375"/>
      </g>
     </g>
    </g>
    <g id="xtick_10">
     <g id="line2d_10">
      <path d="M 659.75742 612
L 659.75742 86.4
" clip-path="url(#pe617d539b5)" style="fill: none; stroke: #000000; stroke-opacity: 0.5; stroke-width: 0.5; stroke-linecap: round"/>
     </g>
     <g id="text_10">
      <!-- Salicaceae -->
      <g style="fill: #262626" transform="translate(637.876245 647.850255)rotate(-45)scale(0.055584 -0.055584)">
       <use xlink:href="#DejaVuSans-53"/>
       <use xlink:href="#DejaVuSans-61" x="63.476562"/>
       <use xlink:href="#DejaVuSans-6c" x="124.755859"/>
       <use xlink:href="#DejaVuSans-69" x="152.539062"/>
       <use xlink:href="#DejaVuSans-63" x="180.322266"/>
       <use xlink:href="#DejaVuSans-61" x="235.302734"/>
       <use xlink:href="#DejaVuSans-63" x="296.582031"/>
       <use xlink:href="#DejaVuSans-65" x="351.5625"/>
       <use xlink:href="#DejaVuSans-61" x="413.085938"/>
       <use xlink:href="#DejaVuSans-65" x="474.365234"/>
      </g>
     </g>
    </g>
    <g id="xtick_11">
     <g id="line2d_11">
      <path d="M 1024.88946 612
L 1024.88946 86.4
" clip-path="url(#pe617d539b5)" style="fill: none; stroke: #000000; stroke-opacity: 0.5; stroke-width: 0.5; stroke-linecap: round"/>
     </g>
     <g id="text_11">
      <!-- Ericaceae -->
      <g style="fill: #262626" transform="translate(1004.904694 645.953846)rotate(-45)scale(0.055584 -0.055584)">
       <defs>
        <path id="DejaVuSans-45" d="M 628 4666
L 3578 4666
L 3578 4134
L 1259 4134
L 1259 2753
L 3481 2753
L 3481 2222
L 1259 2222
L 1259 531
L 3634 531
L 3634 0
L 628 0
L 628 4666
z
" transform="scale(0.015625)"/>
       </defs>
       <use xlink:href="#DejaVuSans-45"/>
       <use xlink:href="#DejaVuSans-72" x="63.183594"/>
       <use xlink:href="#DejaVuSans-69" x="104.296875"/>
       <use xlink:href="#DejaVuSans-63" x="132.080078"/>
       <use xlink:href="#DejaVuSans-61" x="187.060547"/>
       <use xlink:href="#DejaVuSans-63" x="248.339844"/>
       <use xlink:href="#DejaVuSans-65" x="303.320312"/>
       <use xlink:href="#DejaVuSans-61" x="364.84375"/>
       <use xlink:href="#DejaVuSans-65" x="426.123047"/>
      </g>
     </g>
    </g>
    <g id="xtick_12">
     <g id="line2d_12">
      <path d="M 1233.53634 612
L 1233.53634 86.4
" clip-path="url(#pe617d539b5)" style="fill: none; stroke: #000000; stroke-opacity: 0.5; stroke-width: 0.5; stroke-linecap: round"/>
     </g>
     <g id="text_12">
      <!-- Apocynaceae -->
      <g style="fill: #262626" transform="translate(1206.336866 653.168554)rotate(-45)scale(0.055584 -0.055584)">
       <use xlink:href="#DejaVuSans-41"/>
       <use xlink:href="#DejaVuSans-70" x="68.408203"/>
       <use xlink:href="#DejaVuSans-6f" x="131.884766"/>
       <use xlink:href="#DejaVuSans-63" x="193.066406"/>
       <use xlink:href="#DejaVuSans-79" x="248.046875"/>
       <use xlink:href="#DejaVuSans-6e" x="307.226562"/>
       <use xlink:href="#DejaVuSans-61" x="370.605469"/>
       <use xlink:href="#DejaVuSans-63" x="431.884766"/>
       <use xlink:href="#DejaVuSans-65" x="486.865234"/>
       <use xlink:href="#DejaVuSans-61" x="548.388672"/>
       <use xlink:href="#DejaVuSans-65" x="609.667969"/>
      </g>
     </g>
    </g>
    <g id="text_13">
     <!-- Family -->
     <g style="fill: #262626" transform="translate(720.299453 669.069092)scale(0.11 -0.11)">
      <defs>
       <path id="DejaVuSans-6d" d="M 3328 2828
Q 3544 3216 3844 3400
Q 4144 3584 4550 3584
Q 5097 3584 5394 3201
Q 5691 2819 5691 2113
L 5691 0
L 5113 0
L 5113 2094
Q 5113 2597 4934 2840
Q 4756 3084 4391 3084
Q 3944 3084 3684 2787
Q 3425 2491 3425 1978
L 3425 0
L 2847 0
L 2847 2094
Q 2847 2600 2669 2842
Q 2491 3084 2119 3084
Q 1678 3084 1418 2786
Q 1159 2488 1159 1978
L 1159 0
L 581 0
L 581 3500
L 1159 3500
L 1159 2956
Q 1356 3278 1631 3431
Q 1906 3584 2284 3584
Q 2666 3584 2933 3390
Q 3200 3197 3328 2828
z
" transform="scale(0.015625)"/>
      </defs>
      <use xlink:href="#DejaVuSans-46"/>
      <use xlink:href="#DejaVuSans-61" x="48.394531"/>
      <use xlink:href="#DejaVuSans-6d" x="109.673828"/>
      <use xlink:href="#DejaVuSans-69" x="207.085938"/>
      <use xlink:href="#DejaVuSans-6c" x="234.869141"/>
      <use xlink:href="#DejaVuSans-79" x="262.652344"/>
     </g>
    </g>
   </g>
   <g id="matplotlib.axis_2">
    <g id="ytick_1">
     <g id="line2d_13">
      <path d="M 180 588.109091
L 1296 588.109091
" clip-path="url(#pe617d539b5)" style="fill: none; stroke: #000000; stroke-opacity: 0.5; stroke-width: 0.5; stroke-linecap: round"/>
     </g>
     <g id="line2d_14">
      <defs>
       <path id="mf62ec2c943" d="M 0 0
L -4.8 0
" style="stroke: #262626"/>
      </defs>
      <g>
       <use xlink:href="#mf62ec2c943" x="180" y="588.109091" style="fill: #262626; stroke: #262626"/>
      </g>
     </g>
     <g id="text_14">
      <!-- $\mathdefault{10^{0}}$ -->
      <g style="fill: #262626" transform="translate(150.6 591.90831)scale(0.1 -0.1)">
       <defs>
        <path id="DejaVuSans-31" d="M 794 531
L 1825 531
L 1825 4091
L 703 3866
L 703 4441
L 1819 4666
L 2450 4666
L 2450 531
L 3481 531
L 3481 0
L 794 0
L 794 531
z
" transform="scale(0.015625)"/>
        <path id="DejaVuSans-30" d="M 2034 4250
Q 1547 4250 1301 3770
Q 1056 3291 1056 2328
Q 1056 1369 1301 889
Q 1547 409 2034 409
Q 2525 409 2770 889
Q 3016 1369 3016 2328
Q 3016 3291 2770 3770
Q 2525 4250 2034 4250
z
M 2034 4750
Q 2819 4750 3233 4129
Q 3647 3509 3647 2328
Q 3647 1150 3233 529
Q 2819 -91 2034 -91
Q 1250 -91 836 529
Q 422 1150 422 2328
Q 422 3509 836 4129
Q 1250 4750 2034 4750
z
" transform="scale(0.015625)"/>
       </defs>
       <use xlink:href="#DejaVuSans-31" transform="translate(0 0.765625)"/>
       <use xlink:href="#DejaVuSans-30" transform="translate(63.623047 0.765625)"/>
       <use xlink:href="#DejaVuSans-30" transform="translate(128.203125 39.046875)scale(0.7)"/>
      </g>
     </g>
    </g>
    <g id="ytick_2">
     <g id="line2d_15">
      <path d="M 180 353.126992
L 1296 353.126992
" clip-path="url(#pe617d539b5)" style="fill: none; stroke: #000000; stroke-opacity: 0.5; stroke-width: 0.5; stroke-linecap: round"/>
     </g>
     <g id="line2d_16">
      <g>
       <use xlink:href="#mf62ec2c943" x="180" y="353.126992" style="fill: #262626; stroke: #262626"/>
      </g>
     </g>
     <g id="text_15">
      <!-- $\mathdefault{10^{1}}$ -->
      <g style="fill: #262626" transform="translate(150.6 356.926211)scale(0.1 -0.1)">
       <use xlink:href="#DejaVuSans-31" transform="translate(0 0.684375)"/>
       <use xlink:href="#DejaVuSans-30" transform="translate(63.623047 0.684375)"/>
       <use xlink:href="#DejaVuSans-31" transform="translate(128.203125 38.965625)scale(0.7)"/>
      </g>
     </g>
    </g>
    <g id="ytick_3">
     <g id="line2d_17">
      <path d="M 180 118.144893
L 1296 118.144893
" clip-path="url(#pe617d539b5)" style="fill: none; stroke: #000000; stroke-opacity: 0.5; stroke-width: 0.5; stroke-linecap: round"/>
     </g>
     <g id="line2d_18">
      <g>
       <use xlink:href="#mf62ec2c943" x="180" y="118.144893" style="fill: #262626; stroke: #262626"/>
      </g>
     </g>
     <g id="text_16">
      <!-- $\mathdefault{10^{2}}$ -->
      <g style="fill: #262626" transform="translate(150.6 121.944112)scale(0.1 -0.1)">
       <defs>
        <path id="DejaVuSans-32" d="M 1228 531
L 3431 531
L 3431 0
L 469 0
L 469 531
Q 828 903 1448 1529
Q 2069 2156 2228 2338
Q 2531 2678 2651 2914
Q 2772 3150 2772 3378
Q 2772 3750 2511 3984
Q 2250 4219 1831 4219
Q 1534 4219 1204 4116
Q 875 4013 500 3803
L 500 4441
Q 881 4594 1212 4672
Q 1544 4750 1819 4750
Q 2544 4750 2975 4387
Q 3406 4025 3406 3419
Q 3406 3131 3298 2873
Q 3191 2616 2906 2266
Q 2828 2175 2409 1742
Q 1991 1309 1228 531
z
" transform="scale(0.015625)"/>
       </defs>
       <use xlink:href="#DejaVuSans-31" transform="translate(0 0.765625)"/>
       <use xlink:href="#DejaVuSans-30" transform="translate(63.623047 0.765625)"/>
       <use xlink:href="#DejaVuSans-32" transform="translate(128.203125 39.046875)scale(0.7)"/>
      </g>
     </g>
    </g>
    <g id="ytick_4">
     <g id="line2d_19">
      <defs>
       <path id="m6fdab2de19" d="M 0 0
L -3.2 0
" style="stroke: #262626; stroke-width: 0.5"/>
      </defs>
      <g>
       <use xlink:href="#m6fdab2de19" x="180" y="610.881209" style="fill: #262626; stroke: #262626; stroke-width: 0.5"/>
      </g>
     </g>
    </g>
    <g id="ytick_5">
     <g id="line2d_20">
      <g>
       <use xlink:href="#m6fdab2de19" x="180" y="598.861282" style="fill: #262626; stroke: #262626; stroke-width: 0.5"/>
      </g>
     </g>
    </g>
    <g id="ytick_6">
     <g id="line2d_21">
      <g>
       <use xlink:href="#m6fdab2de19" x="180" y="517.372431" style="fill: #262626; stroke: #262626; stroke-width: 0.5"/>
      </g>
     </g>
    </g>
    <g id="ytick_7">
     <g id="line2d_22">
      <g>
       <use xlink:href="#m6fdab2de19" x="180" y="475.994137" style="fill: #262626; stroke: #262626; stroke-width: 0.5"/>
      </g>
     </g>
    </g>
    <g id="ytick_8">
     <g id="line2d_23">
      <g>
       <use xlink:href="#m6fdab2de19" x="180" y="446.635771" style="fill: #262626; stroke: #262626; stroke-width: 0.5"/>
      </g>
     </g>
    </g>
    <g id="ytick_9">
     <g id="line2d_24">
      <g>
       <use xlink:href="#m6fdab2de19" x="180" y="423.863652" style="fill: #262626; stroke: #262626; stroke-width: 0.5"/>
      </g>
     </g>
    </g>
    <g id="ytick_10">
     <g id="line2d_25">
      <g>
       <use xlink:href="#m6fdab2de19" x="180" y="405.257477" style="fill: #262626; stroke: #262626; stroke-width: 0.5"/>
      </g>
     </g>
    </g>
    <g id="ytick_11">
     <g id="line2d_26">
      <g>
       <use xlink:href="#m6fdab2de19" x="180" y="389.52618" style="fill: #262626; stroke: #262626; stroke-width: 0.5"/>
      </g>
     </g>
    </g>
    <g id="ytick_12">
     <g id="line2d_27">
      <g>
       <use xlink:href="#m6fdab2de19" x="180" y="375.89911" style="fill: #262626; stroke: #262626; stroke-width: 0.5"/>
      </g>
     </g>
    </g>
    <g id="ytick_13">
     <g id="line2d_28">
      <g>
       <use xlink:href="#m6fdab2de19" x="180" y="363.879183" style="fill: #262626; stroke: #262626; stroke-width: 0.5"/>
      </g>
     </g>
    </g>
    <g id="ytick_14">
     <g id="line2d_29">
      <g>
       <use xlink:href="#m6fdab2de19" x="180" y="282.390332" style="fill: #262626; stroke: #262626; stroke-width: 0.5"/>
      </g>
     </g>
    </g>
    <g id="ytick_15">
     <g id="line2d_30">
      <g>
       <use xlink:href="#m6fdab2de19" x="180" y="241.012038" style="fill: #262626; stroke: #262626; stroke-width: 0.5"/>
      </g>
     </g>
    </g>
    <g id="ytick_16">
     <g id="line2d_31">
      <g>
       <use xlink:href="#m6fdab2de19" x="180" y="211.653672" style="fill: #262626; stroke: #262626; stroke-width: 0.5"/>
      </g>
     </g>
    </g>
    <g id="ytick_17">
     <g id="line2d_32">
      <g>
       <use xlink:href="#m6fdab2de19" x="180" y="188.881553" style="fill: #262626; stroke: #262626; stroke-width: 0.5"/>
      </g>
     </g>
    </g>
    <g id="ytick_18">
     <g id="line2d_33">
      <g>
       <use xlink:href="#m6fdab2de19" x="180" y="170.275378" style="fill: #262626; stroke: #262626; stroke-width: 0.5"/>
      </g>
     </g>
    </g>
    <g id="ytick_19">
     <g id="line2d_34">
      <g>
       <use xlink:href="#m6fdab2de19" x="180" y="154.544081" style="fill: #262626; stroke: #262626; stroke-width: 0.5"/>
      </g>
     </g>
    </g>
    <g id="ytick_20">
     <g id="line2d_35">
      <g>
       <use xlink:href="#m6fdab2de19" x="180" y="140.917012" style="fill: #262626; stroke: #262626; stroke-width: 0.5"/>
      </g>
     </g>
    </g>
    <g id="ytick_21">
     <g id="line2d_36">
      <g>
       <use xlink:href="#m6fdab2de19" x="180" y="128.897084" style="fill: #262626; stroke: #262626; stroke-width: 0.5"/>
      </g>
     </g>
    </g>
    <g id="text_17">
     <!-- Class Count -->
     <g style="fill: #262626" transform="translate(144.312344 381.750547)rotate(-90)scale(0.11 -0.11)">
      <defs>
       <path id="DejaVuSans-43" d="M 4122 4306
L 4122 3641
Q 3803 3938 3442 4084
Q 3081 4231 2675 4231
Q 1875 4231 1450 3742
Q 1025 3253 1025 2328
Q 1025 1406 1450 917
Q 1875 428 2675 428
Q 3081 428 3442 575
Q 3803 722 4122 1019
L 4122 359
Q 3791 134 3420 21
Q 3050 -91 2638 -91
Q 1578 -91 968 557
Q 359 1206 359 2328
Q 359 3453 968 4101
Q 1578 4750 2638 4750
Q 3056 4750 3426 4639
Q 3797 4528 4122 4306
z
" transform="scale(0.015625)"/>
       <path id="DejaVuSans-20" transform="scale(0.015625)"/>
      </defs>
      <use xlink:href="#DejaVuSans-43"/>
      <use xlink:href="#DejaVuSans-6c" x="69.824219"/>
      <use xlink:href="#DejaVuSans-61" x="97.607422"/>
      <use xlink:href="#DejaVuSans-73" x="158.886719"/>
      <use xlink:href="#DejaVuSans-73" x="210.986328"/>
      <use xlink:href="#DejaVuSans-20" x="263.085938"/>
      <use xlink:href="#DejaVuSans-43" x="294.873047"/>
      <use xlink:href="#DejaVuSans-6f" x="364.697266"/>
      <use xlink:href="#DejaVuSans-75" x="425.878906"/>
      <use xlink:href="#DejaVuSans-6e" x="489.257812"/>
      <use xlink:href="#DejaVuSans-74" x="552.636719"/>
     </g>
    </g>
   </g>
   <g id="patch_3">
    <path d="M 230.727273 235570.207893
L 254.200047 235570.207893
L 254.200047 110.290909
L 230.727273 110.290909
z
" clip-path="url(#pe617d539b5)" style="fill: #5e4fa2; opacity: 0.5; stroke: #000000; stroke-width: 0.5; stroke-linejoin: miter"/>
   </g>
   <g id="patch_4">
    <path d="M 256.808133 235570.207893
L 280.280907 235570.207893
L 280.280907 138.397095
L 256.808133 138.397095
z
" clip-path="url(#pe617d539b5)" style="fill: #84cea5; opacity: 0.5; stroke: #000000; stroke-width: 0.5; stroke-linejoin: miter"/>
   </g>
   <g id="patch_5">
    <path d="M 282.888993 235570.207893
L 306.361767 235570.207893
L 306.361767 154.544081
L 282.888993 154.544081
z
" clip-path="url(#pe617d539b5)" style="fill: #caea9e; opacity: 0.5; stroke: #000000; stroke-width: 0.5; stroke-linejoin: miter"/>
   </g>
   <g id="patch_6">
    <path d="M 308.969853 235570.207893
L 332.442627 235570.207893
L 332.442627 206.674566
L 308.969853 206.674566
z
" clip-path="url(#pe617d539b5)" style="fill: #fed884; opacity: 0.5; stroke: #000000; stroke-width: 0.5; stroke-linejoin: miter"/>
   </g>
   <g id="patch_7">
    <path d="M 335.050713 235570.207893
L 358.523487 235570.207893
L 358.523487 206.674566
L 335.050713 206.674566
z
" clip-path="url(#pe617d539b5)" style="fill: #fed884; opacity: 0.5; stroke: #000000; stroke-width: 0.5; stroke-linejoin: miter"/>
   </g>
   <g id="patch_8">
    <path d="M 361.131573 235570.207893
L 384.604347 235570.207893
L 384.604347 214.23739
L 361.131573 214.23739
z
" clip-path="url(#pe617d539b5)" style="fill: #fec877; opacity: 0.5; stroke: #000000; stroke-width: 0.5; stroke-linejoin: miter"/>
   </g>
   <g id="patch_9">
    <path d="M 387.212433 235570.207893
L 410.685207 235570.207893
L 410.685207 219.609758
L 387.212433 219.609758
z
" clip-path="url(#pe617d539b5)" style="fill: #fdc171; opacity: 0.5; stroke: #000000; stroke-width: 0.5; stroke-linejoin: miter"/>
   </g>
   <g id="patch_10">
    <path d="M 413.293293 235570.207893
L 436.766067 235570.207893
L 436.766067 222.405863
L 413.293293 222.405863
z
" clip-path="url(#pe617d539b5)" style="fill: #fdbb6c; opacity: 0.5; stroke: #000000; stroke-width: 0.5; stroke-linejoin: miter"/>
   </g>
   <g id="patch_11">
    <path d="M 439.374153 235570.207893
L 462.846927 235570.207893
L 462.846927 237.66579
L 439.374153 237.66579
z
" clip-path="url(#pe617d539b5)" style="fill: #fba05b; opacity: 0.5; stroke: #000000; stroke-width: 0.5; stroke-linejoin: miter"/>
   </g>
   <g id="patch_12">
    <path d="M 465.455013 235570.207893
L 488.927787 235570.207893
L 488.927787 251.764229
L 465.455013 251.764229
z
" clip-path="url(#pe617d539b5)" style="fill: #f88950; opacity: 0.5; stroke: #000000; stroke-width: 0.5; stroke-linejoin: miter"/>
   </g>
   <g id="patch_13">
    <path d="M 491.535873 235570.207893
L 515.008647 235570.207893
L 515.008647 272.663792
L 491.535873 272.663792
z
" clip-path="url(#pe617d539b5)" style="fill: #f36b43; opacity: 0.5; stroke: #000000; stroke-width: 0.5; stroke-linejoin: miter"/>
   </g>
   <g id="patch_14">
    <path d="M 517.616733 235570.207893
L 541.089507 235570.207893
L 541.089507 277.411226
L 517.616733 277.411226
z
" clip-path="url(#pe617d539b5)" style="fill: #ef6645; opacity: 0.5; stroke: #000000; stroke-width: 0.5; stroke-linejoin: miter"/>
   </g>
   <g id="patch_15">
    <path d="M 543.697593 235570.207893
L 567.170367 235570.207893
L 567.170367 277.411226
L 543.697593 277.411226
z
" clip-path="url(#pe617d539b5)" style="fill: #ef6645; opacity: 0.5; stroke: #000000; stroke-width: 0.5; stroke-linejoin: miter"/>
   </g>
   <g id="patch_16">
    <path d="M 569.778453 235570.207893
L 593.251227 235570.207893
L 593.251227 277.411226
L 569.778453 277.411226
z
" clip-path="url(#pe617d539b5)" style="fill: #ef6645; opacity: 0.5; stroke: #000000; stroke-width: 0.5; stroke-linejoin: miter"/>
   </g>
   <g id="patch_17">
    <path d="M 595.859313 235570.207893
L 619.332087 235570.207893
L 619.332087 287.624886
L 595.859313 287.624886
z
" clip-path="url(#pe617d539b5)" style="fill: #ea5e47; opacity: 0.5; stroke: #000000; stroke-width: 0.5; stroke-linejoin: miter"/>
   </g>
   <g id="patch_18">
    <path d="M 621.940173 235570.207893
L 645.412947 235570.207893
L 645.412947 293.142523
L 621.940173 293.142523
z
" clip-path="url(#pe617d539b5)" style="fill: #e75948; opacity: 0.5; stroke: #000000; stroke-width: 0.5; stroke-linejoin: miter"/>
   </g>
   <g id="patch_19">
    <path d="M 648.021033 235570.207893
L 671.493807 235570.207893
L 671.493807 293.142523
L 648.021033 293.142523
z
" clip-path="url(#pe617d539b5)" style="fill: #e75948; opacity: 0.5; stroke: #000000; stroke-width: 0.5; stroke-linejoin: miter"/>
   </g>
   <g id="patch_20">
    <path d="M 674.101893 235570.207893
L 697.574667 235570.207893
L 697.574667 305.16245
L 674.101893 305.16245
z
" clip-path="url(#pe617d539b5)" style="fill: #e1504b; opacity: 0.5; stroke: #000000; stroke-width: 0.5; stroke-linejoin: miter"/>
   </g>
   <g id="patch_21">
    <path d="M 700.182753 235570.207893
L 723.655527 235570.207893
L 723.655527 343.400452
L 700.182753 343.400452
z
" clip-path="url(#pe617d539b5)" style="fill: #d0384e; opacity: 0.5; stroke: #000000; stroke-width: 0.5; stroke-linejoin: miter"/>
   </g>
   <g id="patch_22">
    <path d="M 726.263613 235570.207893
L 749.736387 235570.207893
L 749.736387 343.400452
L 726.263613 343.400452
z
" clip-path="url(#pe617d539b5)" style="fill: #d0384e; opacity: 0.5; stroke: #000000; stroke-width: 0.5; stroke-linejoin: miter"/>
   </g>
   <g id="patch_23">
    <path d="M 752.344473 235570.207893
L 775.817247 235570.207893
L 775.817247 353.126992
L 752.344473 353.126992
z
" clip-path="url(#pe617d539b5)" style="fill: #cb334d; opacity: 0.5; stroke: #000000; stroke-width: 0.5; stroke-linejoin: miter"/>
   </g>
   <g id="patch_24">
    <path d="M 778.425333 235570.207893
L 801.898107 235570.207893
L 801.898107 363.879183
L 778.425333 363.879183
z
" clip-path="url(#pe617d539b5)" style="fill: #c72e4c; opacity: 0.5; stroke: #000000; stroke-width: 0.5; stroke-linejoin: miter"/>
   </g>
   <g id="patch_25">
    <path d="M 804.506193 235570.207893
L 827.978967 235570.207893
L 827.978967 375.89911
L 804.506193 375.89911
z
" clip-path="url(#pe617d539b5)" style="fill: #c1274a; opacity: 0.5; stroke: #000000; stroke-width: 0.5; stroke-linejoin: miter"/>
   </g>
   <g id="patch_26">
    <path d="M 830.587053 235570.207893
L 854.059827 235570.207893
L 854.059827 423.863652
L 830.587053 423.863652
z
" clip-path="url(#pe617d539b5)" style="fill: #b11747; opacity: 0.5; stroke: #000000; stroke-width: 0.5; stroke-linejoin: miter"/>
   </g>
   <g id="patch_27">
    <path d="M 856.667913 235570.207893
L 880.140687 235570.207893
L 880.140687 446.635771
L 856.667913 446.635771
z
" clip-path="url(#pe617d539b5)" style="fill: #ad1246; opacity: 0.5; stroke: #000000; stroke-width: 0.5; stroke-linejoin: miter"/>
   </g>
   <g id="patch_28">
    <path d="M 882.748773 235570.207893
L 906.221547 235570.207893
L 906.221547 475.994137
L 882.748773 475.994137
z
" clip-path="url(#pe617d539b5)" style="fill: #a70b44; opacity: 0.5; stroke: #000000; stroke-width: 0.5; stroke-linejoin: miter"/>
   </g>
   <g id="patch_29">
    <path d="M 908.829633 235570.207893
L 932.302407 235570.207893
L 932.302407 475.994137
L 908.829633 475.994137
z
" clip-path="url(#pe617d539b5)" style="fill: #a70b44; opacity: 0.5; stroke: #000000; stroke-width: 0.5; stroke-linejoin: miter"/>
   </g>
   <g id="patch_30">
    <path d="M 934.910493 235570.207893
L 958.383267 235570.207893
L 958.383267 475.994137
L 934.910493 475.994137
z
" clip-path="url(#pe617d539b5)" style="fill: #a70b44; opacity: 0.5; stroke: #000000; stroke-width: 0.5; stroke-linejoin: miter"/>
   </g>
   <g id="patch_31">
    <path d="M 960.991353 235570.207893
L 984.464127 235570.207893
L 984.464127 475.994137
L 960.991353 475.994137
z
" clip-path="url(#pe617d539b5)" style="fill: #a70b44; opacity: 0.5; stroke: #000000; stroke-width: 0.5; stroke-linejoin: miter"/>
   </g>
   <g id="patch_32">
    <path d="M 987.072213 235570.207893
L 1010.544987 235570.207893
L 1010.544987 517.372431
L 987.072213 517.372431
z
" clip-path="url(#pe617d539b5)" style="fill: #a20643; opacity: 0.5; stroke: #000000; stroke-width: 0.5; stroke-linejoin: miter"/>
   </g>
   <g id="patch_33">
    <path d="M 1013.153073 235570.207893
L 1036.625847 235570.207893
L 1036.625847 517.372431
L 1013.153073 517.372431
z
" clip-path="url(#pe617d539b5)" style="fill: #a20643; opacity: 0.5; stroke: #000000; stroke-width: 0.5; stroke-linejoin: miter"/>
   </g>
   <g id="patch_34">
    <path d="M 1039.233933 235570.207893
L 1062.706707 235570.207893
L 1062.706707 517.372431
L 1039.233933 517.372431
z
" clip-path="url(#pe617d539b5)" style="fill: #a20643; opacity: 0.5; stroke: #000000; stroke-width: 0.5; stroke-linejoin: miter"/>
   </g>
   <g id="patch_35">
    <path d="M 1065.314793 235570.207893
L 1088.787567 235570.207893
L 1088.787567 517.372431
L 1065.314793 517.372431
z
" clip-path="url(#pe617d539b5)" style="fill: #a20643; opacity: 0.5; stroke: #000000; stroke-width: 0.5; stroke-linejoin: miter"/>
   </g>
   <g id="patch_36">
    <path d="M 1091.395653 235570.207893
L 1114.868427 235570.207893
L 1114.868427 517.372431
L 1091.395653 517.372431
z
" clip-path="url(#pe617d539b5)" style="fill: #a20643; opacity: 0.5; stroke: #000000; stroke-width: 0.5; stroke-linejoin: miter"/>
   </g>
   <g id="patch_37">
    <path d="M 1117.476513 235570.207893
L 1140.949287 235570.207893
L 1140.949287 517.372431
L 1117.476513 517.372431
z
" clip-path="url(#pe617d539b5)" style="fill: #a20643; opacity: 0.5; stroke: #000000; stroke-width: 0.5; stroke-linejoin: miter"/>
   </g>
   <g id="patch_38">
    <path d="M 1143.557373 235570.207893
L 1167.030147 235570.207893
L 1167.030147 588.109091
L 1143.557373 588.109091
z
" clip-path="url(#pe617d539b5)" style="fill: #9e0142; opacity: 0.5; stroke: #000000; stroke-width: 0.5; stroke-linejoin: miter"/>
   </g>
   <g id="patch_39">
    <path d="M 1169.638233 235570.207893
L 1193.111007 235570.207893
L 1193.111007 588.109091
L 1169.638233 588.109091
z
" clip-path="url(#pe617d539b5)" style="fill: #9e0142; opacity: 0.5; stroke: #000000; stroke-width: 0.5; stroke-linejoin: miter"/>
   </g>
   <g id="patch_40">
    <path d="M 1195.719093 235570.207893
L 1219.191867 235570.207893
L 1219.191867 588.109091
L 1195.719093 588.109091
z
" clip-path="url(#pe617d539b5)" style="fill: #9e0142; opacity: 0.5; stroke: #000000; stroke-width: 0.5; stroke-linejoin: miter"/>
   </g>
   <g id="patch_41">
    <path d="M 1221.799953 235570.207893
L 1245.272727 235570.207893
L 1245.272727 588.109091
L 1221.799953 588.109091
z
" clip-path="url(#pe617d539b5)" style="fill: #9e0142; opacity: 0.5; stroke: #000000; stroke-width: 0.5; stroke-linejoin: miter"/>
   </g>
   <g id="patch_42">
    <path d="M 180 612
L 180 86.4
" style="fill: none; stroke: #ffffff; stroke-linejoin: miter; stroke-linecap: square"/>
   </g>
   <g id="patch_43">
    <path d="M 1296 612
L 1296 86.4
" style="fill: none; stroke: #ffffff; stroke-linejoin: miter; stroke-linecap: square"/>
   </g>
   <g id="patch_44">
    <path d="M 180 612
L 1296 612
" style="fill: none; stroke: #ffffff; stroke-linejoin: miter; stroke-linecap: square"/>
   </g>
   <g id="patch_45">
    <path d="M 180 86.4
L 1296 86.4
" style="fill: none; stroke: #ffffff; stroke-linejoin: miter; stroke-linecap: square"/>
   </g>
   <g id="text_18">
    <!-- General Fossils Family Distribution -->
    <g style="fill: #262626" transform="translate(634.70625 80.4)scale(0.12 -0.12)">
     <defs>
      <path id="DejaVuSans-47" d="M 3809 666
L 3809 1919
L 2778 1919
L 2778 2438
L 4434 2438
L 4434 434
Q 4069 175 3628 42
Q 3188 -91 2688 -91
Q 1594 -91 976 548
Q 359 1188 359 2328
Q 359 3472 976 4111
Q 1594 4750 2688 4750
Q 3144 4750 3555 4637
Q 3966 4525 4313 4306
L 4313 3634
Q 3963 3931 3569 4081
Q 3175 4231 2741 4231
Q 1884 4231 1454 3753
Q 1025 3275 1025 2328
Q 1025 1384 1454 906
Q 1884 428 2741 428
Q 3075 428 3337 486
Q 3600 544 3809 666
z
" transform="scale(0.015625)"/>
      <path id="DejaVuSans-44" d="M 1259 4147
L 1259 519
L 2022 519
Q 2988 519 3436 956
Q 3884 1394 3884 2338
Q 3884 3275 3436 3711
Q 2988 4147 2022 4147
L 1259 4147
z
M 628 4666
L 1925 4666
Q 3281 4666 3915 4102
Q 4550 3538 4550 2338
Q 4550 1131 3912 565
Q 3275 0 1925 0
L 628 0
L 628 4666
z
" transform="scale(0.015625)"/>
     </defs>
     <use xlink:href="#DejaVuSans-47"/>
     <use xlink:href="#DejaVuSans-65" x="77.490234"/>
     <use xlink:href="#DejaVuSans-6e" x="139.013672"/>
     <use xlink:href="#DejaVuSans-65" x="202.392578"/>
     <use xlink:href="#DejaVuSans-72" x="263.916016"/>
     <use xlink:href="#DejaVuSans-61" x="305.029297"/>
     <use xlink:href="#DejaVuSans-6c" x="366.308594"/>
     <use xlink:href="#DejaVuSans-20" x="394.091797"/>
     <use xlink:href="#DejaVuSans-46" x="425.878906"/>
     <use xlink:href="#DejaVuSans-6f" x="479.773438"/>
     <use xlink:href="#DejaVuSans-73" x="540.955078"/>
     <use xlink:href="#DejaVuSans-73" x="593.054688"/>
     <use xlink:href="#DejaVuSans-69" x="645.154297"/>
     <use xlink:href="#DejaVuSans-6c" x="672.9375"/>
     <use xlink:href="#DejaVuSans-73" x="700.720703"/>
     <use xlink:href="#DejaVuSans-20" x="752.820312"/>
     <use xlink:href="#DejaVuSans-46" x="784.607422"/>
     <use xlink:href="#DejaVuSans-61" x="833.001953"/>
     <use xlink:href="#DejaVuSans-6d" x="894.28125"/>
     <use xlink:href="#DejaVuSans-69" x="991.693359"/>
     <use xlink:href="#DejaVuSans-6c" x="1019.476562"/>
     <use xlink:href="#DejaVuSans-79" x="1047.259766"/>
     <use xlink:href="#DejaVuSans-20" x="1106.439453"/>
     <use xlink:href="#DejaVuSans-44" x="1138.226562"/>
     <use xlink:href="#DejaVuSans-69" x="1215.228516"/>
     <use xlink:href="#DejaVuSans-73" x="1243.011719"/>
     <use xlink:href="#DejaVuSans-74" x="1295.111328"/>
     <use xlink:href="#DejaVuSans-72" x="1334.320312"/>
     <use xlink:href="#DejaVuSans-69" x="1375.433594"/>
     <use xlink:href="#DejaVuSans-62" x="1403.216797"/>
     <use xlink:href="#DejaVuSans-75" x="1466.693359"/>
     <use xlink:href="#DejaVuSans-74" x="1530.072266"/>
     <use xlink:href="#DejaVuSans-69" x="1569.28125"/>
     <use xlink:href="#DejaVuSans-6f" x="1597.064453"/>
     <use xlink:href="#DejaVuSans-6e" x="1658.246094"/>
    </g>
   </g>
  </g>
  <g id="axes_2">
   <g id="matplotlib.axis_3">
    <g id="ytick_22">
     <g id="line2d_37">
      <defs>
       <path id="m449e3081d4" d="M 0 0
L 4.8 0
" style="stroke: #262626"/>
      </defs>
      <g>
       <use xlink:href="#m449e3081d4" x="1296" y="556.254545" style="fill: #262626; stroke: #262626"/>
      </g>
     </g>
     <g id="text_19">
      <!-- 20% -->
      <g style="fill: #262626" transform="translate(1307.8 560.053764)scale(0.1 -0.1)">
       <defs>
        <path id="DejaVuSans-25" d="M 4653 2053
Q 4381 2053 4226 1822
Q 4072 1591 4072 1178
Q 4072 772 4226 539
Q 4381 306 4653 306
Q 4919 306 5073 539
Q 5228 772 5228 1178
Q 5228 1588 5073 1820
Q 4919 2053 4653 2053
z
M 4653 2450
Q 5147 2450 5437 2106
Q 5728 1763 5728 1178
Q 5728 594 5436 251
Q 5144 -91 4653 -91
Q 4153 -91 3862 251
Q 3572 594 3572 1178
Q 3572 1766 3864 2108
Q 4156 2450 4653 2450
z
M 1428 4353
Q 1159 4353 1004 4120
Q 850 3888 850 3481
Q 850 3069 1003 2837
Q 1156 2606 1428 2606
Q 1700 2606 1854 2837
Q 2009 3069 2009 3481
Q 2009 3884 1853 4118
Q 1697 4353 1428 4353
z
M 4250 4750
L 4750 4750
L 1831 -91
L 1331 -91
L 4250 4750
z
M 1428 4750
Q 1922 4750 2215 4408
Q 2509 4066 2509 3481
Q 2509 2891 2217 2550
Q 1925 2209 1428 2209
Q 931 2209 642 2551
Q 353 2894 353 3481
Q 353 4063 643 4406
Q 934 4750 1428 4750
z
" transform="scale(0.015625)"/>
       </defs>
       <use xlink:href="#DejaVuSans-32"/>
       <use xlink:href="#DejaVuSans-30" x="63.623047"/>
       <use xlink:href="#DejaVuSans-25" x="127.246094"/>
      </g>
     </g>
    </g>
    <g id="ytick_23">
     <g id="line2d_38">
      <g>
       <use xlink:href="#m449e3081d4" x="1296" y="444.763636" style="fill: #262626; stroke: #262626"/>
      </g>
     </g>
     <g id="text_20">
      <!-- 40% -->
      <g style="fill: #262626" transform="translate(1307.8 448.562855)scale(0.1 -0.1)">
       <defs>
        <path id="DejaVuSans-34" d="M 2419 4116
L 825 1625
L 2419 1625
L 2419 4116
z
M 2253 4666
L 3047 4666
L 3047 1625
L 3713 1625
L 3713 1100
L 3047 1100
L 3047 0
L 2419 0
L 2419 1100
L 313 1100
L 313 1709
L 2253 4666
z
" transform="scale(0.015625)"/>
       </defs>
       <use xlink:href="#DejaVuSans-34"/>
       <use xlink:href="#DejaVuSans-30" x="63.623047"/>
       <use xlink:href="#DejaVuSans-25" x="127.246094"/>
      </g>
     </g>
    </g>
    <g id="ytick_24">
     <g id="line2d_39">
      <g>
       <use xlink:href="#m449e3081d4" x="1296" y="333.272727" style="fill: #262626; stroke: #262626"/>
      </g>
     </g>
     <g id="text_21">
      <!-- 60% -->
      <g style="fill: #262626" transform="translate(1307.8 337.071946)scale(0.1 -0.1)">
       <defs>
        <path id="DejaVuSans-36" d="M 2113 2584
Q 1688 2584 1439 2293
Q 1191 2003 1191 1497
Q 1191 994 1439 701
Q 1688 409 2113 409
Q 2538 409 2786 701
Q 3034 994 3034 1497
Q 3034 2003 2786 2293
Q 2538 2584 2113 2584
z
M 3366 4563
L 3366 3988
Q 3128 4100 2886 4159
Q 2644 4219 2406 4219
Q 1781 4219 1451 3797
Q 1122 3375 1075 2522
Q 1259 2794 1537 2939
Q 1816 3084 2150 3084
Q 2853 3084 3261 2657
Q 3669 2231 3669 1497
Q 3669 778 3244 343
Q 2819 -91 2113 -91
Q 1303 -91 875 529
Q 447 1150 447 2328
Q 447 3434 972 4092
Q 1497 4750 2381 4750
Q 2619 4750 2861 4703
Q 3103 4656 3366 4563
z
" transform="scale(0.015625)"/>
       </defs>
       <use xlink:href="#DejaVuSans-36"/>
       <use xlink:href="#DejaVuSans-30" x="63.623047"/>
       <use xlink:href="#DejaVuSans-25" x="127.246094"/>
      </g>
     </g>
    </g>
    <g id="ytick_25">
     <g id="line2d_40">
      <g>
       <use xlink:href="#m449e3081d4" x="1296" y="221.781818" style="fill: #262626; stroke: #262626"/>
      </g>
     </g>
     <g id="text_22">
      <!-- 80% -->
      <g style="fill: #262626" transform="translate(1307.8 225.581037)scale(0.1 -0.1)">
       <defs>
        <path id="DejaVuSans-38" d="M 2034 2216
Q 1584 2216 1326 1975
Q 1069 1734 1069 1313
Q 1069 891 1326 650
Q 1584 409 2034 409
Q 2484 409 2743 651
Q 3003 894 3003 1313
Q 3003 1734 2745 1975
Q 2488 2216 2034 2216
z
M 1403 2484
Q 997 2584 770 2862
Q 544 3141 544 3541
Q 544 4100 942 4425
Q 1341 4750 2034 4750
Q 2731 4750 3128 4425
Q 3525 4100 3525 3541
Q 3525 3141 3298 2862
Q 3072 2584 2669 2484
Q 3125 2378 3379 2068
Q 3634 1759 3634 1313
Q 3634 634 3220 271
Q 2806 -91 2034 -91
Q 1263 -91 848 271
Q 434 634 434 1313
Q 434 1759 690 2068
Q 947 2378 1403 2484
z
M 1172 3481
Q 1172 3119 1398 2916
Q 1625 2713 2034 2713
Q 2441 2713 2670 2916
Q 2900 3119 2900 3481
Q 2900 3844 2670 4047
Q 2441 4250 2034 4250
Q 1625 4250 1398 4047
Q 1172 3844 1172 3481
z
" transform="scale(0.015625)"/>
       </defs>
       <use xlink:href="#DejaVuSans-38"/>
       <use xlink:href="#DejaVuSans-30" x="63.623047"/>
       <use xlink:href="#DejaVuSans-25" x="127.246094"/>
      </g>
     </g>
    </g>
    <g id="ytick_26">
     <g id="line2d_41">
      <g>
       <use xlink:href="#m449e3081d4" x="1296" y="110.290909" style="fill: #262626; stroke: #262626"/>
      </g>
     </g>
     <g id="text_23">
      <!-- 100% -->
      <g style="fill: #262626" transform="translate(1307.8 114.090128)scale(0.1 -0.1)">
       <use xlink:href="#DejaVuSans-31"/>
       <use xlink:href="#DejaVuSans-30" x="63.623047"/>
       <use xlink:href="#DejaVuSans-30" x="127.246094"/>
       <use xlink:href="#DejaVuSans-25" x="190.869141"/>
      </g>
     </g>
    </g>
    <g id="text_24">
     <!-- Normalized Cumulative Sum -->
     <g transform="translate(1348.747344 427.612813)rotate(-90)scale(0.11 -0.11)">
      <defs>
       <path id="DejaVuSans-4e" d="M 628 4666
L 1478 4666
L 3547 763
L 3547 4666
L 4159 4666
L 4159 0
L 3309 0
L 1241 3903
L 1241 0
L 628 0
L 628 4666
z
" transform="scale(0.015625)"/>
       <path id="DejaVuSans-7a" d="M 353 3500
L 3084 3500
L 3084 2975
L 922 459
L 3084 459
L 3084 0
L 275 0
L 275 525
L 2438 3041
L 353 3041
L 353 3500
z
" transform="scale(0.015625)"/>
      </defs>
      <use xlink:href="#DejaVuSans-4e"/>
      <use xlink:href="#DejaVuSans-6f" x="74.804688"/>
      <use xlink:href="#DejaVuSans-72" x="135.986328"/>
      <use xlink:href="#DejaVuSans-6d" x="175.349609"/>
      <use xlink:href="#DejaVuSans-61" x="272.761719"/>
      <use xlink:href="#DejaVuSans-6c" x="334.041016"/>
      <use xlink:href="#DejaVuSans-69" x="361.824219"/>
      <use xlink:href="#DejaVuSans-7a" x="389.607422"/>
      <use xlink:href="#DejaVuSans-65" x="442.097656"/>
      <use xlink:href="#DejaVuSans-64" x="503.621094"/>
      <use xlink:href="#DejaVuSans-20" x="567.097656"/>
      <use xlink:href="#DejaVuSans-43" x="598.884766"/>
      <use xlink:href="#DejaVuSans-75" x="668.708984"/>
      <use xlink:href="#DejaVuSans-6d" x="732.087891"/>
      <use xlink:href="#DejaVuSans-75" x="829.5"/>
      <use xlink:href="#DejaVuSans-6c" x="892.878906"/>
      <use xlink:href="#DejaVuSans-61" x="920.662109"/>
      <use xlink:href="#DejaVuSans-74" x="981.941406"/>
      <use xlink:href="#DejaVuSans-69" x="1021.150391"/>
      <use xlink:href="#DejaVuSans-76" x="1048.933594"/>
      <use xlink:href="#DejaVuSans-65" x="1108.113281"/>
      <use xlink:href="#DejaVuSans-20" x="1169.636719"/>
      <use xlink:href="#DejaVuSans-53" x="1201.423828"/>
      <use xlink:href="#DejaVuSans-75" x="1264.900391"/>
      <use xlink:href="#DejaVuSans-6d" x="1328.279297"/>
     </g>
    </g>
   </g>
   <g id="line2d_42">
    <path d="M 242.46366 588.109091
L 268.54452 527.644444
L 294.62538 476.028283
L 320.70624 445.058586
L 346.7871 414.088889
L 372.86796 385.331313
L 398.94882 358.048485
L 425.02968 331.50303
L 451.11054 308.644444
L 477.1914 288.735354
L 503.27226 272.513131
L 529.35312 257.028283
L 555.43398 241.543434
L 581.51484 226.058586
L 607.5957 212.048485
L 633.67656 198.775758
L 659.75742 185.50303
L 685.83828 173.705051
L 711.91914 165.593939
L 738 157.482828
L 764.08086 150.109091
L 790.16172 143.472727
L 816.24258 137.573737
L 842.32344 133.886869
L 868.4043 130.937374
L 894.48516 128.725253
L 920.56602 126.513131
L 946.64688 124.30101
L 972.72774 122.088889
L 998.8086 120.614141
L 1024.88946 119.139394
L 1050.97032 117.664646
L 1077.05118 116.189899
L 1103.13204 114.715152
L 1129.2129 113.240404
L 1155.29376 112.50303
L 1181.37462 111.765657
L 1207.45548 111.028283
L 1233.53634 110.290909
" clip-path="url(#pe617d539b5)" style="fill: none; stroke: #000000; stroke-opacity: 0.6; stroke-width: 1.75; stroke-linecap: round"/>
    <defs>
     <path id="mef5152758e" d="M 0 1.5
C 0.397805 1.5 0.77937 1.341951 1.06066 1.06066
C 1.341951 0.77937 1.5 0.397805 1.5 0
C 1.5 -0.397805 1.341951 -0.77937 1.06066 -1.06066
C 0.77937 -1.341951 0.397805 -1.5 0 -1.5
C -0.397805 -1.5 -0.77937 -1.341951 -1.06066 -1.06066
C -1.341951 -0.77937 -1.5 -0.397805 -1.5 0
C -1.5 0.397805 -1.341951 0.77937 -1.06066 1.06066
C -0.77937 1.341951 -0.397805 1.5 0 1.5
z
"/>
    </defs>
    <g clip-path="url(#pe617d539b5)">
     <use xlink:href="#mef5152758e" x="242.46366" y="588.109091" style="fill-opacity: 0.6"/>
     <use xlink:href="#mef5152758e" x="268.54452" y="527.644444" style="fill-opacity: 0.6"/>
     <use xlink:href="#mef5152758e" x="294.62538" y="476.028283" style="fill-opacity: 0.6"/>
     <use xlink:href="#mef5152758e" x="320.70624" y="445.058586" style="fill-opacity: 0.6"/>
     <use xlink:href="#mef5152758e" x="346.7871" y="414.088889" style="fill-opacity: 0.6"/>
     <use xlink:href="#mef5152758e" x="372.86796" y="385.331313" style="fill-opacity: 0.6"/>
     <use xlink:href="#mef5152758e" x="398.94882" y="358.048485" style="fill-opacity: 0.6"/>
     <use xlink:href="#mef5152758e" x="425.02968" y="331.50303" style="fill-opacity: 0.6"/>
     <use xlink:href="#mef5152758e" x="451.11054" y="308.644444" style="fill-opacity: 0.6"/>
     <use xlink:href="#mef5152758e" x="477.1914" y="288.735354" style="fill-opacity: 0.6"/>
     <use xlink:href="#mef5152758e" x="503.27226" y="272.513131" style="fill-opacity: 0.6"/>
     <use xlink:href="#mef5152758e" x="529.35312" y="257.028283" style="fill-opacity: 0.6"/>
     <use xlink:href="#mef5152758e" x="555.43398" y="241.543434" style="fill-opacity: 0.6"/>
     <use xlink:href="#mef5152758e" x="581.51484" y="226.058586" style="fill-opacity: 0.6"/>
     <use xlink:href="#mef5152758e" x="607.5957" y="212.048485" style="fill-opacity: 0.6"/>
     <use xlink:href="#mef5152758e" x="633.67656" y="198.775758" style="fill-opacity: 0.6"/>
     <use xlink:href="#mef5152758e" x="659.75742" y="185.50303" style="fill-opacity: 0.6"/>
     <use xlink:href="#mef5152758e" x="685.83828" y="173.705051" style="fill-opacity: 0.6"/>
     <use xlink:href="#mef5152758e" x="711.91914" y="165.593939" style="fill-opacity: 0.6"/>
     <use xlink:href="#mef5152758e" x="738" y="157.482828" style="fill-opacity: 0.6"/>
     <use xlink:href="#mef5152758e" x="764.08086" y="150.109091" style="fill-opacity: 0.6"/>
     <use xlink:href="#mef5152758e" x="790.16172" y="143.472727" style="fill-opacity: 0.6"/>
     <use xlink:href="#mef5152758e" x="816.24258" y="137.573737" style="fill-opacity: 0.6"/>
     <use xlink:href="#mef5152758e" x="842.32344" y="133.886869" style="fill-opacity: 0.6"/>
     <use xlink:href="#mef5152758e" x="868.4043" y="130.937374" style="fill-opacity: 0.6"/>
     <use xlink:href="#mef5152758e" x="894.48516" y="128.725253" style="fill-opacity: 0.6"/>
     <use xlink:href="#mef5152758e" x="920.56602" y="126.513131" style="fill-opacity: 0.6"/>
     <use xlink:href="#mef5152758e" x="946.64688" y="124.30101" style="fill-opacity: 0.6"/>
     <use xlink:href="#mef5152758e" x="972.72774" y="122.088889" style="fill-opacity: 0.6"/>
     <use xlink:href="#mef5152758e" x="998.8086" y="120.614141" style="fill-opacity: 0.6"/>
     <use xlink:href="#mef5152758e" x="1024.88946" y="119.139394" style="fill-opacity: 0.6"/>
     <use xlink:href="#mef5152758e" x="1050.97032" y="117.664646" style="fill-opacity: 0.6"/>
     <use xlink:href="#mef5152758e" x="1077.05118" y="116.189899" style="fill-opacity: 0.6"/>
     <use xlink:href="#mef5152758e" x="1103.13204" y="114.715152" style="fill-opacity: 0.6"/>
     <use xlink:href="#mef5152758e" x="1129.2129" y="113.240404" style="fill-opacity: 0.6"/>
     <use xlink:href="#mef5152758e" x="1155.29376" y="112.50303" style="fill-opacity: 0.6"/>
     <use xlink:href="#mef5152758e" x="1181.37462" y="111.765657" style="fill-opacity: 0.6"/>
     <use xlink:href="#mef5152758e" x="1207.45548" y="111.028283" style="fill-opacity: 0.6"/>
     <use xlink:href="#mef5152758e" x="1233.53634" y="110.290909" style="fill-opacity: 0.6"/>
    </g>
   </g>
   <g id="patch_46">
    <path d="M 180 612
L 180 86.4
" style="fill: none; stroke: #ffffff; stroke-linejoin: miter; stroke-linecap: square"/>
   </g>
   <g id="patch_47">
    <path d="M 1296 612
L 1296 86.4
" style="fill: none; stroke: #ffffff; stroke-linejoin: miter; stroke-linecap: square"/>
   </g>
   <g id="patch_48">
    <path d="M 180 612
L 1296 612
" style="fill: none; stroke: #ffffff; stroke-linejoin: miter; stroke-linecap: square"/>
   </g>
   <g id="patch_49">
    <path d="M 180 86.4
L 1296 86.4
" style="fill: none; stroke: #ffffff; stroke-linejoin: miter; stroke-linecap: square"/>
   </g>
  </g>
 </g>
 <defs>
  <clipPath id="pe617d539b5">
   <rect x="180" y="86.4" width="1116" height="525.6"/>
  </clipPath>
 </defs>
</svg>
